<svg width="32" height="32" viewBox="0 0 32 32" fill="none" xmlns="http://www.w3.org/2000/svg">
<path d="M28.719 18.5466H3.26562V30H28.719V18.5466Z" stroke="#76BC1A" stroke-width="2" stroke-miterlimit="10"/>
<path d="M31.2677 18.5466H0.734375" stroke="#76BC1A" stroke-width="2" stroke-miterlimit="10"/>
<path d="M9.64062 18.5469V30.0002" stroke="#76BC1A" stroke-width="2" stroke-miterlimit="10"/>
<path d="M16 18.5467V30" stroke="#76BC1A" stroke-width="2" stroke-miterlimit="10"/>
<path d="M22.3594 18.5469V30.0002" stroke="#76BC1A" stroke-width="2" stroke-miterlimit="10"/>
<path d="M8.35938 16V9.64C8.35938 7.61375 9.1643 5.67048 10.5971 4.2377C12.0299 2.80493 13.9731 2 15.9994 2C17.0027 2 17.9961 2.19761 18.9231 2.58156C19.85 2.96551 20.6922 3.52826 21.4017 4.2377C22.1111 4.94714 22.6739 5.78937 23.0578 6.7163C23.4418 7.64323 23.6394 8.6367 23.6394 9.64V16" stroke="#76BC1A" stroke-width="2" stroke-miterlimit="10"/>
<path d="M8.35938 10.9067H24.906" stroke="#76BC1A" stroke-width="2" stroke-miterlimit="10"/>
<path d="M16 2V16" stroke="#76BC1A" stroke-width="2" stroke-miterlimit="10"/>
</svg>
