<svg width="16" height="16" viewBox="0 0 32 32" fill="none" xmlns="http://www.w3.org/2000/svg">
<path d="M23.9987 5.66675H7.9987C7.02623 5.66675 6.0936 6.05305 5.40598 6.74069C4.71834 7.42832 4.33203 8.36095 4.33203 9.33341V22.6667C4.33203 23.6391 4.71834 24.5718 5.40598 25.2594C6.0936 25.9471 7.02623 26.3334 7.9987 26.3334H23.9987C24.9711 26.3334 25.9038 25.9471 26.5914 25.2594C27.2791 24.5718 27.6654 23.6391 27.6654 22.6667V9.33341C27.6654 8.36095 27.2791 7.42832 26.5914 6.74069C25.9038 6.05305 24.9711 5.66675 23.9987 5.66675ZM7.9987 7.66675H23.9987C24.4407 7.66675 24.8647 7.84235 25.1772 8.15491C25.4898 8.46747 25.6654 8.89139 25.6654 9.33341V20.2534L22.0387 16.6267C21.9439 16.5254 21.8276 16.4465 21.6984 16.3958C21.5694 16.345 21.4304 16.3237 21.292 16.3334C21.152 16.3415 21.015 16.3775 20.8891 16.4394C20.7631 16.5013 20.6508 16.5875 20.5587 16.6934L18.8387 18.7601L12.7054 12.6267C12.615 12.5307 12.5053 12.4549 12.3835 12.4043C12.2617 12.3538 12.1305 12.3296 11.9987 12.3334C11.8586 12.3416 11.7216 12.3776 11.5957 12.4394C11.4698 12.5012 11.3575 12.5876 11.2654 12.6934L6.33203 18.5734V9.33341C6.33203 8.89139 6.50763 8.46747 6.82019 8.15491C7.13275 7.84235 7.55667 7.66675 7.9987 7.66675ZM6.33203 22.6667V21.6934L12.0654 14.8134L17.5587 20.3067L14.1987 24.3067H7.9987C7.56126 24.3067 7.14132 24.1349 6.82951 23.8281C6.51771 23.5213 6.33903 23.1041 6.33203 22.6667ZM23.9987 24.3334H16.7987L21.3987 18.8134L25.5987 23.0134C25.525 23.3841 25.3255 23.7179 25.0339 23.9585C24.7423 24.199 24.3767 24.3314 23.9987 24.3334Z" fill="black"/>
</svg>
